# xmcd CD database file generated by Grip 3.2.0
# 
# Track frame offsets:
#       150
#       72511
#       195788
# 
# Disc length: 4262 seconds
# 
# Revision: 6
# Processed by: cddbd v1.5.2PL0 Copyright (c) Steve Scherf et al.
# Submitted via: Grip 3.2.0
# 
DISCID=2010a403
DTITLE=Anton Bruckner - Symphony No.8 (Karajan, Preuﬂische Staatskapelle)
DYEAR=1944
DGENRE=Other
TTITLE0=Symphony No.8 in C minor - II. Scherzo: Allegro moderato
TTITLE1=Symphony No.8 in C minor - III. Adagio. Feierlich langsam, doch nicht 
TTITLE1=schleppend
TTITLE2=Symphony No.8 in C minor - IV. Finale: Feierlich, nicht schnell
EXTD=
EXTT0=Mono
EXTT1=Mono
EXTT2=H. von Karajans erste STEREO-Aufnahme
PLAYORDER=
